<?xml version="1.0" encoding="utf-8"?>
<!-- Generator: Adobe Illustrator 15.1.0, SVG Export Plug-In . SVG Version: 6.00 Build 0)  -->
<!DOCTYPE svg PUBLIC "-//W3C//DTD SVG 1.1//EN" "http://www.w3.org/Graphics/SVG/1.1/DTD/svg11.dtd">
<svg version="1.1" id="Capa_1" xmlns="http://www.w3.org/2000/svg" xmlns:xlink="http://www.w3.org/1999/xlink" x="0px" y="0px"
	 width="411px" height="79px" viewBox="0 0 411 79" enable-background="new 0 0 411 79" xml:space="preserve">
<g>
	<g>
		<g>
			<path d="M42.812,33.306l-16.46,0.218c-6.408,0.109-9.059,0.381-10.716,1.579c-1.105,0.817-1.657,1.471-1.878,1.906
				c-0.221,0.436-0.552,0.653-1.215,0.653c-0.773,0-0.994-0.272-0.994-0.871c0-0.872,2.099-5.827,2.32-6.263
				c0.332-0.708,0.663-1.035,1.326-1.035c0.884,0,1.988,0.544,4.75,0.653c3.204,0.163,7.402,0.272,11.048,0.272H74.74
				c3.535,0,5.966-0.164,7.623-0.272c1.657-0.164,2.541-0.272,2.982-0.272c0.773,0,0.884,0.327,0.884,1.144
				c0,1.144-0.331,4.901-0.331,6.317c-0.11,0.544-0.332,0.872-0.994,0.872c-0.884,0-1.105-0.272-1.215-1.089l-0.111-0.599
				c-0.221-1.416-3.204-2.941-13.036-3.05l-13.919-0.163v22.328c0,5.011,0,9.313,0.552,11.654c0.332,1.524,0.994,2.724,4.308,2.94
				c1.547,0.108,3.978,0.219,5.634,0.219c1.215,0,1.768,0.162,1.768,0.436c0,0.381-0.884,0.545-2.099,0.545
				c-7.292,0-14.251-0.164-17.345-0.164c-2.541,0-9.5,0.164-13.919,0.164c-1.437,0-2.209-0.164-2.209-0.545
				c0-0.271,0.442-0.436,1.768-0.436c1.657,0,2.983-0.109,3.977-0.219c2.209-0.219,2.872-1.416,3.204-2.996
				c0.552-2.287,0.552-6.588,0.552-11.6V33.306H42.812z"/>
		</g>
	</g>
	<g>
		<g>
			<path d="M99.934,46.047c0-8.278,0-9.803-0.221-11.545c-0.221-1.852-1.326-2.777-3.756-3.049
				c-1.215-0.164-2.651-0.218-3.977-0.218c-1.104,0-1.768-0.109-1.768-0.545c0-0.327,0.884-0.436,2.651-0.436
				c4.198,0,11.158,0.164,14.362,0.164c2.762,0,9.28-0.164,13.478-0.164c1.436,0,2.32,0.109,2.32,0.436
				c0,0.436-0.663,0.545-1.768,0.545c-1.104,0-1.988,0.054-3.314,0.163c-2.983,0.272-3.867,1.198-4.087,3.104
				c-0.221,1.743-0.221,3.268-0.221,11.545v9.584c0,5.283,0,9.585,0.442,11.928c0.332,1.471,1.104,2.449,4.419,2.668
				c1.547,0.108,3.977,0.219,5.634,0.219c1.215,0,1.768,0.162,1.768,0.436c0,0.381-0.884,0.544-2.099,0.544
				c-7.291,0-14.251-0.163-17.234-0.163c-2.541,0-9.5,0.163-13.919,0.163c-1.437,0-2.21-0.163-2.21-0.544
				c0-0.271,0.442-0.436,1.768-0.436c1.657,0,2.983-0.109,3.978-0.219c2.209-0.219,2.872-1.145,3.204-2.724
				c0.552-2.287,0.552-6.589,0.552-11.872v-9.584H99.934z"/>
		</g>
	</g>
	<g>
		<g>
			<path d="M157.402,33.304l-16.46,0.218c-6.407,0.109-9.059,0.381-10.716,1.579c-1.105,0.817-1.657,1.471-1.878,1.906
				c-0.221,0.436-0.553,0.653-1.215,0.653c-0.773,0-0.995-0.272-0.995-0.871c0-0.872,2.099-5.827,2.32-6.263
				c0.331-0.708,0.663-1.035,1.326-1.035c0.884,0,1.988,0.544,4.75,0.653c3.204,0.163,7.401,0.272,11.047,0.272h43.748
				c3.535,0,5.965-0.164,7.623-0.272c1.657-0.164,2.541-0.272,2.983-0.272c0.773,0,0.884,0.327,0.884,1.144
				c0,1.144-0.332,4.901-0.332,6.317c-0.111,0.544-0.332,0.872-0.995,0.872c-0.884,0-1.104-0.272-1.215-1.089l-0.11-0.599
				c-0.221-1.416-3.204-2.941-13.036-3.05l-13.92-0.163v22.328c0,5.011,0,9.313,0.553,11.654c0.331,1.524,0.994,2.723,4.309,2.94
				c1.546,0.108,3.977,0.219,5.634,0.219c1.215,0,1.768,0.162,1.768,0.436c0,0.381-0.884,0.544-2.099,0.544
				c-7.292,0-14.251-0.163-17.345-0.163c-2.541,0-9.5,0.163-13.919,0.163c-1.436,0-2.209-0.163-2.209-0.544
				c0-0.271,0.442-0.436,1.768-0.436c1.657,0,2.982-0.109,3.977-0.219c2.209-0.219,2.872-1.416,3.204-2.996
				c0.552-2.287,0.552-6.588,0.552-11.6V33.304H157.402z"/>
		</g>
	</g>
	<g>
		<g>
			<path d="M210.309,57.211c-0.552,0-0.772,0.109-0.994,0.438l-5.965,7.787c-1.104,1.36-1.657,2.668-1.657,3.321
				c0,0.979,0.994,1.688,4.419,1.688h1.656c1.326,0,1.657,0.107,1.657,0.436c0,0.436-0.663,0.544-1.878,0.544
				c-3.535,0-8.286-0.163-11.71-0.163c-1.215,0-7.291,0.163-13.036,0.163c-1.436,0-2.099-0.108-2.099-0.544
				c0-0.326,0.442-0.436,1.326-0.436c0.994,0,2.541-0.055,3.425-0.109c5.082-0.327,7.181-2.18,9.39-4.9l27.729-34.201
				c1.326-1.58,1.988-2.179,3.093-2.179c0.994,0,1.657,0.49,2.762,1.743c2.651,2.995,20.327,25.215,27.397,33.492
				c4.197,4.9,7.4,5.664,9.722,5.936c1.657,0.164,3.313,0.219,4.64,0.219c0.885,0,1.438,0.055,1.438,0.437
				c0,0.437-0.994,0.544-5.082,0.544c-3.977,0-12.042,0-20.88-0.107c-1.988-0.055-3.313-0.055-3.313-0.437
				c0-0.327,0.441-0.437,1.547-0.489c0.772-0.109,1.547-0.601,0.994-1.254l-8.838-11.545c-0.221-0.271-0.552-0.382-1.104-0.382
				L210.309,57.211L210.309,57.211z M232.846,54.488c0.553,0,0.663-0.163,0.553-0.326l-9.942-13.452
				c-0.11-0.218-0.222-0.489-0.552-0.489c-0.332,0-0.553,0.271-0.663,0.489l-10.164,13.397c-0.11,0.218,0,0.381,0.442,0.381H232.846
				z"/>
		</g>
	</g>
	<g>
		<g>
			<path d="M280.746,64.02c0.222,4.248,1.656,5.664,3.867,6.045c1.878,0.326,3.977,0.381,5.744,0.381
				c1.216,0,1.879,0.109,1.879,0.437c0,0.437-0.995,0.544-2.541,0.544c-7.182,0-11.6-0.162-13.699-0.162
				c-0.994,0-6.188,0.162-11.932,0.162c-1.437,0-2.431-0.054-2.431-0.544c0-0.327,0.663-0.437,1.769-0.437
				c1.436,0,3.425-0.055,4.971-0.271c2.873-0.436,3.314-2.016,3.425-6.753l0.995-32.24c0-1.089,0.331-1.852,1.436-1.852
				c1.215,0,2.211,0.708,4.088,1.688c1.326,0.708,18.117,9.584,34.246,17.481c7.514,3.703,22.428,11.545,24.306,12.417h0.553
				l-1.104-24.452c-0.11-3.322-1.104-4.357-3.756-4.901c-1.658-0.327-4.31-0.327-5.855-0.327c-1.325,0-1.768-0.164-1.768-0.49
				c0-0.436,1.215-0.49,2.873-0.49c5.743,0,11.047,0.164,13.366,0.164c1.216,0,5.413-0.164,10.826-0.164
				c1.437,0,2.541,0.054,2.541,0.49c0,0.327-0.663,0.49-1.987,0.49c-1.105,0-1.988,0-3.314,0.163
				c-3.094,0.436-3.977,1.58-4.088,4.629l-1.215,34.364c0,1.198-0.441,1.688-1.438,1.688c-1.215,0-2.54-0.599-3.756-1.197
				c-6.96-3.269-21.102-10.401-32.59-16.011c-12.041-5.883-24.305-12.689-26.293-13.725h-0.332L280.746,64.02z"/>
		</g>
	</g>
	<g>
		<g>
			<path d="M357.564,71.633c-1.768-0.381-2.1-0.652-2.1-1.852c0-2.995,0.442-6.264,0.553-7.135c0.11-0.816,0.441-1.416,1.325-1.416
				c0.994,0,1.105,0.49,1.105,0.927c0,0.708,0.44,1.852,0.993,2.776c2.431,4.03,8.949,5.5,15.799,5.5
				c9.941,0,14.803-3.32,14.803-6.207c0-2.67-1.657-5.174-10.826-8.715l-5.082-1.959c-12.15-4.685-16.35-8.496-16.35-12.908
				c0-5.991,10.163-10.292,25.52-10.292c7.182,0,11.82,0.544,14.692,0.926c0.994,0.109,1.547,0.272,1.547,0.653
				c0,0.708-0.44,2.287-0.44,6.535c0,1.198-0.332,1.635-1.217,1.635c-0.772,0-1.104-0.328-1.104-0.98
				c0-0.49-0.553-2.178-2.872-3.594c-1.657-1.035-4.861-2.668-12.042-2.668c-8.176,0-13.146,2.342-13.146,5.609
				c0,2.504,2.541,4.411,11.711,7.842l3.094,1.144c13.367,4.956,18.117,8.714,18.117,13.887c0,3.159-2.431,6.917-10.385,9.478
				c-5.523,1.742-11.711,2.231-17.564,2.231C367.287,73.049,362.314,72.668,357.564,71.633z"/>
		</g>
	</g>
	<g>
		<g>
			<path d="M71.326,17.228c0-2.809,0-3.326-0.063-3.917c-0.063-0.628-0.317-0.924-1.365-1.053c-0.254-0.037-0.794-0.055-1.238-0.055
				c-0.35,0-0.54-0.037-0.54-0.167c0-0.13,0.222-0.166,0.699-0.166c1.683,0,3.683,0.055,4.35,0.055c1.08,0,3.493-0.055,4.477-0.055
				c2,0,4.128,0.111,5.843,0.794c0.889,0.351,2.159,1.293,2.159,2.532c0,1.367-0.984,2.624-4.191,4.139
				c2.826,2.069,5.017,3.714,6.891,4.859c1.778,1.072,3.08,1.201,3.556,1.257c0.35,0.037,0.635,0.055,0.889,0.055
				s0.381,0.056,0.381,0.148c0,0.148-0.223,0.185-0.604,0.185h-3.017c-1.778,0-2.572-0.093-3.397-0.351
				c-1.366-0.425-2.572-1.294-4.351-2.717c-1.27-1.016-2.73-2.272-3.144-2.55c-0.159-0.111-0.349-0.129-0.571-0.129l-2.763-0.037
				c-0.159,0-0.254,0.037-0.254,0.148v0.259c0,1.718,0,3.178,0.159,3.955c0.095,0.536,0.286,0.942,1.238,1.016
				c0.477,0.037,1.175,0.074,1.556,0.074c0.254,0,0.381,0.056,0.381,0.148c0,0.129-0.222,0.185-0.635,0.185
				c-1.841,0-4.191-0.056-4.667-0.056c-0.604,0-2.604,0.056-3.874,0.056c-0.413,0-0.635-0.056-0.635-0.185
				c0-0.092,0.127-0.148,0.508-0.148c0.476,0,0.857-0.037,1.143-0.074c0.635-0.074,0.794-0.48,0.921-1.016
				c0.159-0.776,0.159-2.236,0.159-3.936L71.326,17.228L71.326,17.228z M75.073,18.688c0,0.203,0.063,0.277,0.286,0.333
				c0.667,0.129,1.62,0.185,2.413,0.185c1.271,0,1.683-0.074,2.255-0.314c0.953-0.406,1.874-1.256,1.874-2.771
				c0-2.624-2.985-3.382-4.858-3.382c-0.794,0-1.366,0.019-1.683,0.074c-0.222,0.037-0.286,0.111-0.286,0.258L75.073,18.688
				L75.073,18.688z"/>
			<path d="M95.302,17.228c0-2.809,0-3.326-0.063-3.917c-0.063-0.628-0.317-0.924-1.365-1.053c-0.254-0.037-0.794-0.055-1.239-0.055
				c-0.349,0-0.54-0.037-0.54-0.167c0-0.13,0.222-0.166,0.699-0.166c0.857,0,1.778,0.018,2.572,0.018
				c0.826,0.019,1.556,0.037,2,0.037c1.016,0,7.335,0,7.938-0.019c0.604-0.037,1.111-0.074,1.365-0.111
				c0.159-0.019,0.35-0.074,0.508-0.074c0.158,0,0.19,0.074,0.19,0.166c0,0.129-0.159,0.352-0.254,1.201
				c-0.032,0.185-0.095,0.998-0.159,1.22c-0.032,0.092-0.096,0.203-0.318,0.203c-0.222,0-0.286-0.092-0.286-0.259
				c0-0.129-0.032-0.443-0.19-0.665c-0.222-0.333-0.54-0.554-2.127-0.665c-0.54-0.037-3.874-0.074-4.509-0.074
				c-0.159,0-0.222,0.056-0.222,0.185v4.675c0,0.129,0.032,0.204,0.222,0.204c0.699,0,4.351,0,5.081-0.037
				c0.762-0.037,1.239-0.092,1.524-0.277c0.222-0.148,0.349-0.24,0.508-0.24c0.127,0,0.222,0.037,0.222,0.148
				c0,0.111-0.127,0.407-0.254,1.349c-0.032,0.369-0.127,1.108-0.127,1.238c0,0.148,0,0.351-0.286,0.351
				c-0.222,0-0.286-0.074-0.286-0.166c-0.032-0.185-0.032-0.425-0.127-0.666c-0.159-0.37-0.603-0.646-1.778-0.721
				c-0.604-0.037-3.747-0.055-4.509-0.055c-0.159,0-0.19,0.074-0.19,0.185v1.46c0,0.628-0.032,2.328,0,2.864
				c0.063,1.275,0.572,1.552,3.811,1.552c0.826,0,2.159,0,2.985-0.222c0.826-0.222,1.207-0.609,1.429-1.367
				c0.063-0.203,0.127-0.277,0.35-0.277c0.254,0,0.254,0.148,0.254,0.333c0,0.425-0.254,1.682-0.413,2.051
				c-0.222,0.48-0.508,0.48-1.714,0.48c-2.382,0-4.128-0.037-5.494-0.055c-1.365-0.037-2.35-0.056-3.302-0.056
				c-0.349,0-1.048,0-1.81,0.019c-0.73,0-1.556,0.037-2.191,0.037c-0.413,0-0.635-0.056-0.635-0.185
				c0-0.092,0.127-0.148,0.508-0.148c0.476,0,0.857-0.037,1.143-0.074c0.635-0.074,0.794-0.48,0.921-1.016
				c0.159-0.776,0.159-2.236,0.159-3.936L95.302,17.228L95.302,17.228z"/>
			<path d="M116.547,11.943c0.095-0.314,0.286-0.48,0.54-0.48s0.444,0.092,0.857,0.573l8.668,10.422l8.637-10.551
				c0.254-0.295,0.413-0.443,0.698-0.443c0.286,0,0.477,0.185,0.572,0.573l2.89,11.42c0.286,1.164,0.603,1.7,1.556,1.866
				c0.921,0.167,1.556,0.185,1.969,0.185c0.286,0,0.508,0.019,0.508,0.129c0,0.148-0.381,0.204-0.826,0.204
				c-0.794,0-5.176-0.056-6.446-0.111c-0.73-0.037-0.921-0.092-0.921-0.203c0-0.092,0.127-0.148,0.349-0.203
				c0.19-0.037,0.286-0.277,0.159-0.794l-1.905-8.131h-0.127l-6.922,8.389c-0.73,0.869-0.889,1.035-1.175,1.035
				s-0.603-0.37-1.111-0.924c-0.762-0.85-3.271-3.677-3.651-4.194c-0.286-0.388-2.191-2.716-3.303-4.102h-0.127l-1.651,7.354
				c-0.064,0.333-0.096,0.573-0.096,0.869c0,0.351,0.413,0.518,0.953,0.591c0.572,0.074,1.016,0.092,1.334,0.092
				c0.254,0,0.476,0.037,0.476,0.129c0,0.167-0.286,0.204-0.762,0.204c-1.333,0-2.762-0.056-3.334-0.056
				c-0.603,0-2.127,0.056-3.144,0.056c-0.317,0-0.572-0.037-0.572-0.204c0-0.092,0.191-0.129,0.508-0.129
				c0.254,0,0.476,0,0.953-0.055c0.889-0.111,1.143-0.832,1.302-1.46L116.547,11.943z"/>
			<path d="M148.494,17.228c0-2.809,0-3.326-0.063-3.917c-0.063-0.628-0.317-0.924-1.365-1.053
				c-0.254-0.037-0.794-0.055-1.238-0.055c-0.35,0-0.54-0.037-0.54-0.167c0-0.13,0.222-0.166,0.699-0.166
				c0.857,0,1.778,0.018,2.572,0.018c0.826,0.019,1.556,0.037,2,0.037c1.016,0,7.335,0,7.938-0.019
				c0.604-0.037,1.111-0.074,1.365-0.111c0.159-0.019,0.35-0.074,0.508-0.074c0.158,0,0.19,0.074,0.19,0.166
				c0,0.129-0.159,0.352-0.254,1.201c-0.032,0.185-0.095,0.998-0.159,1.22c-0.032,0.092-0.095,0.203-0.318,0.203
				c-0.222,0-0.286-0.092-0.286-0.259c0-0.129-0.032-0.443-0.19-0.665c-0.222-0.333-0.54-0.554-2.127-0.665
				c-0.54-0.037-3.874-0.074-4.509-0.074c-0.159,0-0.222,0.056-0.222,0.185v4.675c0,0.129,0.032,0.204,0.222,0.204
				c0.699,0,4.351,0,5.081-0.037c0.762-0.037,1.238-0.092,1.524-0.277c0.222-0.148,0.349-0.24,0.508-0.24
				c0.127,0,0.223,0.037,0.223,0.148c0,0.111-0.127,0.407-0.254,1.349c-0.032,0.369-0.127,1.108-0.127,1.238
				c0,0.148,0,0.351-0.286,0.351c-0.222,0-0.286-0.074-0.286-0.166c-0.032-0.185-0.032-0.425-0.127-0.666
				c-0.159-0.37-0.603-0.646-1.778-0.721c-0.604-0.037-3.747-0.055-4.509-0.055c-0.159,0-0.19,0.074-0.19,0.185v1.46
				c0,0.628-0.032,2.328,0,2.864c0.063,1.275,0.572,1.552,3.811,1.552c0.826,0,2.159,0,2.985-0.222
				c0.826-0.222,1.207-0.609,1.429-1.367c0.063-0.203,0.127-0.277,0.349-0.277c0.254,0,0.254,0.148,0.254,0.333
				c0,0.425-0.254,1.682-0.413,2.051c-0.222,0.48-0.508,0.48-1.714,0.48c-2.382,0-4.128-0.037-5.494-0.055
				c-1.365-0.037-2.35-0.056-3.302-0.056c-0.349,0-1.048,0-1.81,0.019c-0.73,0-1.556,0.037-2.191,0.037
				c-0.413,0-0.635-0.056-0.635-0.185c0-0.092,0.127-0.148,0.508-0.148c0.476,0,0.857-0.037,1.143-0.074
				c0.635-0.074,0.794-0.48,0.921-1.016c0.159-0.776,0.159-2.236,0.159-3.936v-3.253H148.494z"/>
			<path d="M169.739,11.943c0.095-0.314,0.286-0.48,0.54-0.48c0.254,0,0.444,0.092,0.857,0.573l8.668,10.422l8.637-10.551
				c0.254-0.295,0.413-0.443,0.698-0.443c0.286,0,0.477,0.185,0.572,0.573l2.89,11.42c0.286,1.164,0.603,1.7,1.556,1.866
				c0.921,0.167,1.556,0.185,1.969,0.185c0.286,0,0.508,0.019,0.508,0.129c0,0.148-0.381,0.204-0.826,0.204
				c-0.794,0-5.176-0.056-6.446-0.111c-0.73-0.037-0.921-0.092-0.921-0.203c0-0.092,0.127-0.148,0.349-0.203
				c0.19-0.037,0.286-0.277,0.159-0.794l-1.905-8.131h-0.127l-6.922,8.389c-0.73,0.869-0.889,1.035-1.175,1.035
				c-0.286,0-0.603-0.37-1.111-0.924c-0.762-0.85-3.271-3.677-3.651-4.194c-0.286-0.388-2.191-2.716-3.303-4.102h-0.127
				l-1.651,7.354c-0.064,0.333-0.096,0.573-0.096,0.869c0,0.351,0.413,0.518,0.953,0.591c0.572,0.074,1.016,0.092,1.334,0.092
				c0.254,0,0.476,0.037,0.476,0.129c0,0.167-0.286,0.204-0.762,0.204c-1.333,0-2.762-0.056-3.334-0.056
				c-0.603,0-2.127,0.056-3.144,0.056c-0.317,0-0.572-0.037-0.572-0.204c0-0.092,0.191-0.129,0.508-0.129
				c0.254,0,0.476,0,0.953-0.055c0.889-0.111,1.143-0.832,1.302-1.46L169.739,11.943z"/>
			<path d="M201.687,17.228c0-2.809,0-3.326-0.063-3.917c-0.063-0.628-0.317-0.924-1.365-1.053
				c-0.254-0.037-0.794-0.055-1.238-0.055c-0.35,0-0.54-0.037-0.54-0.167c0-0.13,0.222-0.166,0.699-0.166
				c1.683,0,3.683,0.055,4.318,0.055c1.556,0,2.794-0.055,3.874-0.055c5.747,0,6.763,1.792,6.763,2.771
				c0,1.515-1.492,2.421-3.238,3.234c2.604,0.518,5.778,1.829,5.778,3.991c0,1.977-2.636,4.028-8.478,4.028
				c-0.381,0-1.303-0.037-2.223-0.055c-0.953-0.037-1.905-0.056-2.381-0.056c-0.349,0-1.048,0-1.81,0.019
				c-0.73,0-1.556,0.037-2.191,0.037c-0.413,0-0.635-0.056-0.635-0.185c0-0.092,0.127-0.148,0.508-0.148
				c0.476,0,0.857-0.037,1.143-0.074c0.635-0.074,0.794-0.48,0.921-1.016c0.159-0.776,0.159-2.236,0.159-3.936L201.687,17.228
				L201.687,17.228z M205.497,17.542c0,0.147,0.095,0.185,0.222,0.203c0.286,0.037,0.762,0.055,1.493,0.055
				c1.048,0,1.746-0.074,2.286-0.351c0.826-0.388,1.302-1.053,1.302-1.958c0-1.238-1.237-2.864-3.969-2.864
				c-0.444,0-0.729,0-1.048,0.037c-0.222,0.037-0.286,0.111-0.286,0.314V17.542z M209.688,19.021
				c-0.666-0.277-1.396-0.406-2.636-0.443c-0.571-0.019-0.889-0.019-1.365-0.019c-0.127,0-0.19,0.037-0.19,0.129v4.379
				c0,1.22,0.095,1.534,1.11,1.774c0.857,0.203,1.588,0.222,2.318,0.222c1.43,0,3.842-0.443,3.842-2.365
				C212.77,21.552,212.102,20,209.688,19.021z"/>
			<path d="M223.503,17.228c0-2.809,0-3.326-0.063-3.917c-0.063-0.628-0.316-0.924-1.364-1.053
				c-0.255-0.037-0.794-0.055-1.239-0.055c-0.35,0-0.54-0.037-0.54-0.167c0-0.13,0.222-0.166,0.699-0.166
				c0.856,0,1.778,0.018,2.571,0.018c0.826,0.019,1.557,0.037,2,0.037c1.017,0,7.336,0,7.938-0.019
				c0.604-0.037,1.111-0.074,1.365-0.111c0.159-0.019,0.351-0.074,0.508-0.074c0.158,0,0.19,0.074,0.19,0.166
				c0,0.129-0.159,0.352-0.254,1.201c-0.032,0.185-0.096,0.998-0.159,1.22c-0.032,0.092-0.097,0.203-0.318,0.203
				s-0.286-0.092-0.286-0.259c0-0.129-0.031-0.443-0.189-0.665c-0.223-0.333-0.54-0.554-2.127-0.665
				c-0.541-0.037-3.875-0.074-4.51-0.074c-0.158,0-0.222,0.056-0.222,0.185v4.675c0,0.129,0.032,0.204,0.222,0.204
				c0.699,0,4.352,0,5.082-0.037c0.762-0.037,1.238-0.092,1.523-0.277c0.223-0.148,0.35-0.24,0.508-0.24
				c0.127,0,0.223,0.037,0.223,0.148c0,0.111-0.127,0.407-0.254,1.349c-0.033,0.369-0.127,1.108-0.127,1.238
				c0,0.148,0,0.351-0.287,0.351c-0.222,0-0.285-0.074-0.285-0.166c-0.032-0.185-0.032-0.425-0.127-0.666
				c-0.159-0.37-0.604-0.646-1.778-0.721c-0.604-0.037-3.747-0.055-4.509-0.055c-0.159,0-0.19,0.074-0.19,0.185v1.46
				c0,0.628-0.032,2.328,0,2.864c0.063,1.275,0.572,1.552,3.812,1.552c0.826,0,2.158,0,2.984-0.222
				c0.826-0.222,1.207-0.609,1.43-1.367c0.063-0.203,0.127-0.277,0.35-0.277c0.254,0,0.254,0.148,0.254,0.333
				c0,0.425-0.254,1.682-0.413,2.051c-0.222,0.48-0.508,0.48-1.714,0.48c-2.382,0-4.128-0.037-5.494-0.055
				c-1.365-0.037-2.35-0.056-3.302-0.056c-0.349,0-1.048,0-1.81,0.019c-0.73,0-1.557,0.037-2.191,0.037
				c-0.413,0-0.635-0.056-0.635-0.185c0-0.092,0.127-0.148,0.508-0.148c0.476,0,0.857-0.037,1.143-0.074
				c0.635-0.074,0.795-0.48,0.922-1.016c0.158-0.776,0.158-2.236,0.158-3.936L223.503,17.228L223.503,17.228z"/>
			<path d="M243.573,17.228c0-2.809,0-3.326-0.063-3.917c-0.063-0.628-0.316-0.924-1.365-1.053
				c-0.254-0.037-0.793-0.055-1.237-0.055c-0.351,0-0.54-0.037-0.54-0.167c0-0.13,0.222-0.166,0.697-0.166
				c1.685,0,3.685,0.055,4.352,0.055c1.079,0,3.493-0.055,4.479-0.055c2,0,4.127,0.111,5.842,0.794
				c0.89,0.351,2.16,1.293,2.16,2.532c0,1.367-0.984,2.624-4.191,4.139c2.824,2.069,5.018,3.714,6.891,4.859
				c1.777,1.072,3.079,1.201,3.557,1.257c0.35,0.037,0.636,0.055,0.89,0.055s0.381,0.056,0.381,0.148
				c0,0.148-0.223,0.185-0.604,0.185H261.8c-1.778,0-2.571-0.093-3.397-0.351c-1.364-0.425-2.571-1.294-4.351-2.717
				c-1.27-1.016-2.729-2.272-3.144-2.55c-0.158-0.111-0.35-0.129-0.571-0.129l-2.763-0.037c-0.159,0-0.254,0.037-0.254,0.148v0.259
				c0,1.718,0,3.178,0.158,3.955c0.096,0.536,0.285,0.942,1.238,1.016c0.477,0.037,1.176,0.074,1.557,0.074
				c0.254,0,0.381,0.056,0.381,0.148c0,0.129-0.223,0.185-0.635,0.185c-1.843,0-4.191-0.056-4.668-0.056
				c-0.604,0-2.604,0.056-3.875,0.056c-0.412,0-0.635-0.056-0.635-0.185c0-0.092,0.127-0.148,0.508-0.148
				c0.477,0,0.857-0.037,1.145-0.074c0.635-0.074,0.793-0.48,0.92-1.016c0.159-0.776,0.159-2.236,0.159-3.936V17.228z
				 M247.32,18.688c0,0.203,0.063,0.277,0.285,0.333c0.666,0.129,1.619,0.185,2.414,0.185c1.27,0,1.683-0.074,2.254-0.314
				c0.953-0.406,1.873-1.256,1.873-2.771c0-2.624-2.984-3.382-4.857-3.382c-0.794,0-1.365,0.019-1.684,0.074
				c-0.223,0.037-0.285,0.111-0.285,0.258V18.688z"/>
		</g>
	</g>
	<g>
		<g>
			<path d="M281.184,12.904l-4.731,0.074c-1.843,0.037-2.604,0.129-3.08,0.536c-0.317,0.277-0.476,0.499-0.539,0.646
				c-0.063,0.148-0.159,0.222-0.351,0.222c-0.223,0-0.285-0.092-0.285-0.295c0-0.296,0.604-1.977,0.667-2.125
				c0.096-0.24,0.19-0.351,0.381-0.351c0.254,0,0.571,0.185,1.364,0.222c0.922,0.055,2.129,0.092,3.177,0.092h12.573
				c1.018,0,1.716-0.055,2.191-0.092c0.477-0.056,0.73-0.092,0.857-0.092c0.222,0,0.254,0.111,0.254,0.388
				c0,0.388-0.096,1.663-0.096,2.144c-0.031,0.185-0.096,0.296-0.285,0.296c-0.256,0-0.318-0.092-0.35-0.37l-0.033-0.203
				c-0.063-0.48-0.92-0.998-3.746-1.035l-4-0.055v7.576c0,1.7,0,3.16,0.158,3.954c0.096,0.518,0.285,0.924,1.237,0.998
				c0.445,0.037,1.144,0.074,1.62,0.074c0.35,0,0.508,0.056,0.508,0.148c0,0.129-0.254,0.185-0.604,0.185
				c-2.096,0-4.096-0.056-4.985-0.056c-0.729,0-2.729,0.056-4.001,0.056c-0.413,0-0.635-0.056-0.635-0.185
				c0-0.092,0.127-0.148,0.508-0.148c0.477,0,0.857-0.037,1.145-0.074c0.635-0.074,0.824-0.48,0.92-1.016
				c0.158-0.776,0.158-2.236,0.158-3.936v-7.578H281.184z"/>
			<path d="M315.796,17.746c0.097,0,0.19-0.037,0.19-0.129v-0.388c0-2.809,0-3.326-0.063-3.917
				c-0.063-0.628-0.317-0.924-1.364-1.053c-0.254-0.037-0.795-0.055-1.238-0.055c-0.35,0-0.541-0.037-0.541-0.167
				s0.224-0.166,0.668-0.166c1.715,0,3.715,0.055,4.572,0.055c0.763,0,2.763-0.055,4-0.055c0.444,0,0.668,0.037,0.668,0.166
				s-0.19,0.167-0.571,0.167c-0.255,0-0.54,0.019-0.921,0.055c-0.857,0.093-1.111,0.407-1.176,1.053
				c-0.063,0.591-0.063,1.109-0.063,3.917v3.252c0,1.7,0,3.16,0.158,3.954c0.096,0.518,0.285,0.924,1.238,0.998
				c0.444,0.037,1.144,0.074,1.619,0.074c0.35,0,0.508,0.056,0.508,0.148c0,0.129-0.254,0.185-0.635,0.185
				c-2.063,0-4.063-0.056-4.953-0.056c-0.73,0-2.73,0.056-3.97,0.056c-0.444,0-0.667-0.056-0.667-0.185
				c0-0.092,0.127-0.148,0.508-0.148c0.478,0,0.857-0.037,1.145-0.074c0.635-0.074,0.794-0.48,0.921-1.016
				c0.157-0.776,0.157-2.236,0.157-3.936v-1.626c0-0.074-0.094-0.111-0.189-0.111h-12.13c-0.095,0-0.19,0.018-0.19,0.111v1.626
				c0,1.7,0,3.16,0.159,3.954c0.095,0.518,0.285,0.924,1.238,0.998c0.444,0.037,1.144,0.074,1.619,0.074
				c0.35,0,0.508,0.056,0.508,0.148c0,0.129-0.254,0.185-0.636,0.185c-2.063,0-4.063-0.056-4.952-0.056
				c-0.729,0-2.731,0.056-4.001,0.056c-0.413,0-0.637-0.056-0.637-0.185c0-0.092,0.127-0.148,0.509-0.148
				c0.477,0,0.856-0.037,1.144-0.074c0.635-0.074,0.795-0.48,0.922-1.016c0.158-0.776,0.158-2.236,0.158-3.936v-3.252
				c0-2.809,0-3.326-0.063-3.917c-0.064-0.628-0.318-0.924-1.366-1.053c-0.254-0.037-0.794-0.055-1.238-0.055
				c-0.349,0-0.54-0.037-0.54-0.167c0-0.13,0.223-0.166,0.667-0.166c1.716,0,3.716,0.055,4.573,0.055
				c0.762,0,2.762-0.055,4.001-0.055c0.444,0,0.666,0.037,0.666,0.166s-0.19,0.167-0.571,0.167c-0.254,0-0.54,0.019-0.921,0.055
				c-0.856,0.093-1.11,0.407-1.175,1.053c-0.063,0.591-0.063,1.109-0.063,3.917v0.388c0,0.092,0.096,0.129,0.189,0.129H315.796z"/>
			<path d="M330.374,17.228c0-2.809,0-3.326-0.063-3.917c-0.063-0.628-0.317-0.924-1.365-1.053
				c-0.254-0.037-0.795-0.055-1.238-0.055c-0.35,0-0.54-0.037-0.54-0.167c0-0.13,0.224-0.166,0.699-0.166
				c0.856,0,1.778,0.018,2.571,0.018c0.826,0.019,1.557,0.037,2,0.037c1.018,0,7.336,0,7.938-0.019
				c0.604-0.037,1.11-0.074,1.365-0.111c0.159-0.019,0.35-0.074,0.508-0.074c0.159,0,0.19,0.074,0.19,0.166
				c0,0.129-0.158,0.352-0.254,1.201c-0.031,0.185-0.096,0.998-0.158,1.22c-0.032,0.092-0.096,0.203-0.317,0.203
				c-0.224,0-0.286-0.092-0.286-0.259c0-0.129-0.031-0.443-0.189-0.665c-0.224-0.333-0.541-0.554-2.129-0.665
				c-0.539-0.037-3.873-0.074-4.508-0.074c-0.158,0-0.223,0.056-0.223,0.185v4.675c0,0.129,0.031,0.204,0.223,0.204
				c0.697,0,4.351,0,5.08-0.037c0.762-0.037,1.238-0.092,1.523-0.277c0.223-0.148,0.35-0.24,0.509-0.24
				c0.127,0,0.222,0.037,0.222,0.148c0,0.111-0.127,0.407-0.254,1.349c-0.031,0.369-0.127,1.108-0.127,1.238
				c0,0.148,0,0.351-0.285,0.351c-0.223,0-0.285-0.074-0.285-0.166c-0.033-0.185-0.033-0.425-0.127-0.666
				c-0.16-0.37-0.604-0.646-1.779-0.721c-0.604-0.037-3.746-0.055-4.508-0.055c-0.16,0-0.19,0.074-0.19,0.185v1.46
				c0,0.628-0.032,2.328,0,2.864c0.063,1.275,0.571,1.552,3.81,1.552c0.826,0,2.159,0,2.985-0.222
				c0.825-0.222,1.206-0.609,1.429-1.367c0.063-0.203,0.127-0.277,0.35-0.277c0.255,0,0.255,0.148,0.255,0.333
				c0,0.425-0.255,1.682-0.413,2.051c-0.223,0.48-0.508,0.48-1.715,0.48c-2.381,0-4.129-0.037-5.493-0.055
				c-1.365-0.037-2.351-0.056-3.302-0.056c-0.351,0-1.049,0-1.812,0.019c-0.729,0-1.556,0.037-2.19,0.037
				c-0.412,0-0.635-0.056-0.635-0.185c0-0.092,0.127-0.148,0.508-0.148c0.477,0,0.856-0.037,1.144-0.074
				c0.635-0.074,0.794-0.48,0.921-1.016c0.159-0.776,0.159-2.236,0.159-3.936v-3.253H330.374z"/>
		</g>
	</g>
</g>
</svg>
